<svg xmlns="http://www.w3.org/2000/svg"  viewBox="0 0 64 64" width="64px" height="64px"><path d="M 7 8 C 5.347656 8 4 9.347656 4 11 L 4 51 C 4 52.652344 5.347656 54 7 54 L 23 54 C 24.652344 54 26 52.652344 26 51 L 26 26 L 38 26 L 38 51 C 38 52.652344 39.347656 54 41 54 L 57 54 C 58.652344 54 60 52.652344 60 51 L 60 11 C 60 9.347656 58.652344 8 57 8 Z M 7 10 L 57 10 C 57.550781 10 58 10.449219 58 11 L 58 51 C 58 51.550781 57.550781 52 57 52 L 41 52 C 40.449219 52 40 51.550781 40 51 L 40 26 C 40 24.898438 39.101563 24 38 24 L 26 24 C 24.898438 24 24 24.898438 24 26 L 24 51 C 24 51.550781 23.550781 52 23 52 L 7 52 C 6.449219 52 6 51.550781 6 51 L 6 11 C 6 10.449219 6.449219 10 7 10 Z M 10 46 C 9.445313 46 9 46.445313 9 47 L 9 49 C 9 49.554688 9.445313 50 10 50 C 10.554688 50 11 49.554688 11 49 L 11 47 C 11 46.445313 10.554688 46 10 46 Z M 15 46 C 14.445313 46 14 46.445313 14 47 L 14 49 C 14 49.554688 14.445313 50 15 50 C 15.554688 50 16 49.554688 16 49 L 16 47 C 16 46.445313 15.554688 46 15 46 Z M 20 46 C 19.445313 46 19 46.445313 19 47 L 19 49 C 19 49.554688 19.445313 50 20 50 C 20.554688 50 21 49.554688 21 49 L 21 47 C 21 46.445313 20.554688 46 20 46 Z M 44 46 C 43.445313 46 43 46.445313 43 47 L 43 49 C 43 49.554688 43.445313 50 44 50 C 44.554688 50 45 49.554688 45 49 L 45 47 C 45 46.445313 44.554688 46 44 46 Z M 49 46 C 48.445313 46 48 46.445313 48 47 L 48 49 C 48 49.554688 48.445313 50 49 50 C 49.554688 50 50 49.554688 50 49 L 50 47 C 50 46.445313 49.554688 46 49 46 Z M 54 46 C 53.445313 46 53 46.445313 53 47 L 53 49 C 53 49.554688 53.445313 50 54 50 C 54.554688 50 55 49.554688 55 49 L 55 47 C 55 46.445313 54.554688 46 54 46 Z"/></svg>